<?xml version="1.0" encoding="UTF-8"?>
<svg id="Ebene_1" xmlns="http://www.w3.org/2000/svg" version="1.1" viewBox="0 0 126.5 115">
  <!-- Generator: Adobe Illustrator 29.8.4, SVG Export Plug-In . SVG Version: 2.1.1 Build 6)  -->
  <defs>
    <style>
      .st0 {
        fill: #1d1d1b;
      }

      .st1 {
        fill: #008197;
      }
    </style>
  </defs>
  <g>
    <path class="st0" d="M1.9,103.2c.1-.5.3-.9.5-1.4s.3-.9.4-1.4l.8-.2h.4c0-.1.5-.3.5-.3l.2.2-.3.5h.4c0,0,.2,0,.2-.2s0-.2.3-.3c0,.1,0,.2,0,.2q0,.1,0,.2t0,.2l.2-.2.5-.4h.2q0,0,.2.1t.2.2h0c.2.2.4.4.5.6v.4c0,.2,0,.3,0,.4s-.2.3-.2.5c0,.2,0,.5-.2.8s0,.5,0,.8h0v2.7h0c0,.2,0,.3.2.3,0,.1.2.1.3.2.6-.5,1-1.1,1.3-1.8.3-.7.6-1.4.6-2.1.1-.9.2-1.8.2-2.6.1-.8.2-1.7.5-2.5v-.3c0-.1-.1-.2-.1-.4q-.1.1-.1.2c0,0-.1.2-.1.2,0,0,0-.2,0-.3s0-.2-.1-.4c-.1.1-.2.1-.4.1s-.2.1-.4.1h-.2c-.4.2-.9.4-1.4.5-.4.1-.9.1-1.4.2h-.8c-.4-.1-.9-.3-1.3-.5s-.8-.5-1.2-.8-.6-.7-.9-1.1c-.3-.4-.4-.9-.4-1.4s0-.1,0-.2v-.2c0-.5,0-1,.3-1.5.2-.5.4-.9.8-1.3v-.3q.1-.1.1-.2c0,0,0-.2.1-.2.3-.4.7-.9,1-1.3s.7-.9,1.1-1.3c0-.1.2-.1.3-.1,0-.1.2-.1.3-.1h0c.2,0,.6,0,.8-.3.3-.1.5-.2.8-.4h.2c.4-.1.7-.1,1.1-.2.4-.1.8-.2,1.1-.2h1.2c.2,0,.5.1.7.2.3.1.6.1.8.3s.6.2.9.2c.7.1,1.2.3,1.6.8.4.5.6,1.1.6,1.7s.1.1.1.2v.2c-.1.4-.2.8-.5,1.2-.2.4-.6.6-1.1.6h-.2c-.3,0-.6-.1-.9-.1s-.6-.1-.9-.1c-.3-.1-.6-.1-.9-.2-.3-.1-.6-.2-.8-.5v-.4c0-.1,0-.2.1-.4,0-.2.1-.3.1-.5v-1.3h-.6c-.4.4-.8.7-1.1,1.1s-.8.7-1.1,1.1l-.5.4-.4,1.1h.2q0-.2,0-.3h0c0,.3,0,.4,0,.6s0,.3-.2.4h0c0,.4-.2.7-.2,1,0,.3,0,.6-.2.9.6-.2,1.2-.4,1.8-.5.6-.2,1.2-.3,1.8-.5.8,0,1.6.1,2.3.2.8.1,1.4.3,2,.6.6.2,1.1.6,1.4,1.1.4.4.6,1,.6,1.6v.4c.1.1.1.2,0,.4-.1.1-.1.2-.1.4v.2c.2.1.2.2.2.3.1.1.1.2.1.3-.1.6-.2,1.2-.2,1.8-.1.6-.1,1.2-.1,1.8v.2c.1.1,0,.3,0,.4s-.1.3-.1.5h0v.2c-.3.8-.7,1.5-1.1,2.2-.4.8-.8,1.5-1.1,2.2l-.3.2c-.4.3-.8.6-1.1.9s-.8.6-1.1.9c-.3.2-.6.2-.9.2s-.6.1-.9.2h-.6c0,.1-.4.1-.4.1-.6,0-1.1-.1-1.7-.2-.6-.2-1.1-.3-1.7-.5l-.4-.2c-.2-.1-.3-.1-.4-.2,0-.1-.3-.2-.4-.3-.3-.2-.4-.6-.5-.9,0-.4-.2-.7-.2-1.1h0c0-.1-.2-.2-.2-.2h0v-.3q0-.1,0-.2c0-.1,0-.2,0-.4v-.6q0-.1,0-.2c0-.1-.1-.1-.1-.2v-.4c0-.2,0-.5.1-.8,0-.2,0-.5.2-.7v-.4h-.4ZM2,103.2v.2c0,0,.2-.1.2-.1v-.3h0c0-.1,0,.2,0,.2Z"/>
    <path class="st0" d="M32.8,86.7c.4,0,.7.1.8.1,0,.1.2.2.2.3s0,.2-.2.4c0,.1-.2.2-.4.4l-.2.2h.2v.2h0c0,.1,0,.1,0,.1v.2s0,.1.2.1c.4,0,.9-.1,1.3-.2.4-.1.9-.2,1.4-.2h.4v.2l-3.2,2.9c0,.1-.2.2-.2.4,0,.1-.2.2-.4.4l-3.2,3.1-.3.2-2,1.9v.4c.1,0,7.9,10.2,7.9,10.2,0,0,0,.1,0,.1,0,.1,0,.2,0,.4,0,.2.2.4.3.6,0,.2.2.4.4.6,0,.2.2.2.3.2h0v.2h-.2v.4c0,.1,0,.2.2.3l-.4.4q0,.1-.2.1c0,0-.2-.1-.2-.2,0-.1,0-.2-.2-.2h-.2s0,.1,0,.1q0,.1,0,.2c0,.1,0,.2,0,.2l-2.4-2.4q0-.1-.2-.2c0-.1-.2-.2-.3-.4,0-.1-.3-.2-.3-.3-.1-.1-.2-.2-.2-.2,0,0-.1.1-.1.2,0,.3.1.6.3,1,.2.3.4.7.7,1s.6.6.9.9c.3.2.6.5.9.8q0,.1.2.2c0,.1,0,.2,0,.2,0,.1,0,.1,0,.2,0,.1,0,.2,0,.2h-.2c0-.1-9-10.6-9-10.6l-.4-.3q-.1.1-.2.1c-.1,0-.1-.1-.2-.2-.1-.1-.2-.2-.3-.4s-.2-.3-.4-.4c-.1-.1-.2-.2-.3-.2s-.2,0-.2.1q-.1.1-.1.2t.2.2c.1-.1.2,0,.2.1,0,.2.1.3.1.5v.6c0,.4,0,.8-.1,1.2-.1.5-.1,1.1-.2,1.8s-.3,1.6-.5,2.6-.4,2.2-.8,3.6c0,0-.1,0-.1.1h-.1c-.1.1-.3,0-.4-.2s-.3-.4-.4-.5q-.1.1-.2.2c-.1.1-.2.1-.2.1v-.5h-.5c0-.1-1-10.2-1-10.2l-.2-.2c0,.2-.1.5-.1.6v-.6c-.3,0-.4.1-.4.2v.4c0,.1-.1.2-.2.2.1,0,.2.1.2.1.1.5.1,1.1.1,1.8v4.3c0,.8.1,1.4.1,1.9.1.6.1,1,.2,1.3l.2-.2v.2c.1.3-.1.5-.3.5s-.3,0-.4-.1-.2-.1-.4-.1c.1-.2.2-.3.2-.4s-.1-.2-.1-.2q-.1-.1-.1-.2c-.1-.9-.1-1.8-.2-2.6,0-.9-.1-1.8-.1-2.6,0-1.2.1-2.5.1-3.7s.1-2.4.2-3.6c-.1-.1-.2-.2-.4-.4.1-.2.2-.4.2-.5.1-.1.1-.2.1-.3.1-.1.1-.2.1-.2,0,0-.1-.1-.1-.2-.1-.1-.1-.2-.1-.3,0-.2.1-.4.1-.6.1-.2.1-.4.1-.5v-.3h.1c0,.1.7-6.3.7-6.3h-.2c0,.1,0,0,0,0h0v-.2c0-.1.1-.1.1-.1h-.1c0-.1-.1-.9-.1-.9l-.2.5h0c0-.3.1-.5.1-.8s.1-.4.1-.7v-.2c0-.1-.1-.2-.2-.3h.6v.3c.1-.1.1-.2.2-.2s.1-.1.2-.1.2.1.5.1c.2.1.4.2.4.3s0,.1-.1.1c.1-.1.2-.1.3-.1.2,0,.4.1.6.2.2.1.4.3.7.5q.1,0,.1-.1c.1,0,.1-.1.1-.1,0,0,.2.1.6.2s.4.2.5.4v1.4c.1.1.2.2.3.5.2.2.3.5.3.7v.2c0,.4-.1.7-.1,1-.1.3-.1.7-.1,1v.2h.3c0-.1-.3.8-.3.8.1,0,.1.1.1.2,0,.2-.1.4-.1.6-.1.2-.1.4-.1.6h0c0,.1.1,0,.1,0v.8c.1,0,9.3-7.8,9.3-7.8ZM18.3,99.7c.1,0,.2-.1.2-.1.1-.1.1-.2.1-.4v-.7c-.1-.1-.2-.2-.2-.2v-.2c0-.4.1-.8.1-1.1s.1-.7.1-1.1v-.4c0-.1,0-.2-.1-.2l-.3,4.1v.3h0ZM18.5,109.9h0c.1,0,.1-.1.1-.1,0,0,0-.1.1-.1,0,0,.1,0,.2.1,0,.1-.1.2-.1.3-.1.1-.1.2-.2.2v-.4ZM18.7,95q.1-.1.1-.2v-1h-.2v1.2ZM19,97.4c-.1.3-.2.6-.2.8-.1.2-.1.4-.1.7v.4c.1-.1.2-.2.2-.5.1-.3.1-.6.1-.9v-.5ZM19.6,110.7q0-.1.1-.1c0-.1.1-.1,0-.1v.3c-.1.1-.1,0-.1,0ZM30.8,107.3c0,.1.1.2.1.4.1.1.3.2.4.2,0-.2-.1-.3-.2-.5s-.3-.3-.4-.4c-.1-.1-.2-.2-.4-.3-.1-.1-.2-.1-.3-.1v.2c.2.1.2.2.3.3s.1.1.2.2c.2,0,.2,0,.3,0ZM32.8,88.6h0c0-.1,0,0,0,0Z"/>
    <path class="st0" d="M42.5,110.6h-.2c0,.1,0,0,0,0h0c0-.2,0-.3,0-.4,0-.1-.2-.2-.2-.3,0-.1-.2-.2-.3-.3s0-.2-.2-.2q0-.1,0-.2t0-.2c0-.3,0-.6,0-.8,0-.2,0-.4,0-.7h0v-.2l-.6-2.4h-.2c0,0,0-.3,0-.5v-.6c0-1.3,0-2.7-.2-4,0-1.4-.2-2.7-.3-4h-.2v.4h-.2c0,.1,0,.1,0,.2v.9c0,.3,0,.6,0,.8,0,.3,0,.6,0,.9s0,.4,0,.5c0,.2,0,.5,0,.9s0,.9,0,1.4,0,.9,0,1.3c0,.4,0,.6.2.7v.2c0,.3,0,.8,0,1.4s0,1.2.2,1.9c0,.7,0,1.2.2,1.8,0,.5,0,.8.2.8s.2,0,.2.1c0,0,0,.1,0,.2,0,0,0,.1,0,.2,0,.1,0,.2,0,.3s0,.1,0,.2q0,.1,0,.2,0,0,0,.1c0,0,0,.1-.2.1s-.2.1-.2.1q0,.1,0,.2c0-.1-.3-.2-.6-.4-.2-.2-.3-.4-.3-.6h0q0,0,0,0h0v-.2l-.4-1.8-.6-19.1h0c0,.1,0-1.8,0-1.8,0-.1,0-.1,0-.2q0-.1.2-.1c0,0,0,.1,0,.2,0-.1,0-.2.2-.2.2,0,.3.1.4.3,0,.2.2.3.4.3,0,.1,0,.2.2.4,0,.2,0,.3,0,.4,0,0,0-.1,0-.2,0-.1,0-.1,0-.2,0-.1,0-.2.2-.4h.3v.6c0-.1.2-.2.2-.3h0v.2h0c0,.1,0,.1,0,.1,0,0,0,.1.2.1,0-.2,0-.3.3-.3,0-.1.3-.1.5-.1,0,.1.2.2.2.2,0,0,0,.1.2.1l.2.6h0v.4c0,.1,0,.3,0,.4,0,.2,0,.3,0,.5v.3q0,.1,0,.3,0,.2,0,.3v.3c0,0,.2.1.2.2s0,.3,0,.4c0,.4,0,.8,0,1.2,0,.4,0,.8,0,1.2v.3c0,.3,0,.6,0,1s.2.6.4.7c0,.8.2,1.6.3,2.4,0,.8,0,1.7,0,2.4v.5l-.2-.2v1.6c0,.2,0,.5,0,.8v.5l.5,3.4c0,.2,0,.3,0,.5s0,.4,0,.5h0v.5c0,0-.2-.1-.3-.2,0-.1,0-.2,0-.3v.2c0,0-.2.1-.2.2q0,.1,0,.2,0,0,0,.2c0,.1,0,.2.2.2,0,.1,0,.2-.2.3,0,.1-.2.2-.4.4,0,.1-.2.2-.4.4,0,.1-.2.2-.3.2v-.3l-1.1-.4ZM39.3,99v.7c0,.2,0,.5,0,.8v-1.5h0ZM39.6,101.4c0,0,0-.1,0-.2s0-.2,0-.4v.6ZM39.7,102c0,0,0,.1,0,.1,0,0,0,.1,0,.1h0c0-.1,0-.2,0-.2ZM39.8,102.6q0,.1,0,.1h0ZM40.1,105.4c0,.1,0,.2,0,.3,0,0,0-.2,0-.3ZM41.2,111.1h0q0,.2,0,.2s0,0,0-.1h0ZM41.7,111s0-.1,0,0q0-.1,0-.1h0ZM43.9,106q0-.1,0-.2h0c0-.1,0,.2,0,.2ZM44.7,107.9v.4c0,.1,0,0,0-.1v-.2h0ZM44.7,109.2h0q0-.1,0-.1h0Z"/>
    <path class="st0" d="M63.8,101c0-.2.3-.5.6-.8s.5-.3.8-.3.2,0,.4.1c.2,0,.3.1.4.1h0,0c0,.1,0,.1,0,.1.2,0,.3,0,.3.1,0,.1.2.1.4.1,0,0,0-.1.3-.1s.4-.2.7-.2c.2-.1.5-.2.7-.2.2-.1.4-.2.4-.2v.2c0,.4,0,.6.2.9,0,.2.2.5.2.8s0,.6-.2.9c0,.3-.2.6-.2.9h0v.2l-2.3,6.2c-.4.4-.7.8-.9,1s-.4.4-.4.5l-.2.2q0,0-.2.1c0,.1-.2.1-.3.1,0,.1-.2.1-.4.2,0,.1-.2.1-.3.1s-.2,0-.2.1q0-.1-.2-.2c0-.1,0-.1,0-.2,0-.1-.2-.1-.5-.2-.2-.1-.4-.1-.5-.1h-.4c-.1,0-.3.1-.3.1v-.2c-.3,0-.6,0-.8-.1-.3,0-.5-.1-.7-.1-.2-.1-.4-.1-.6-.2-.2-.1-.4-.2-.8-.4h-.2c-.6-.4-.9-.9-1.2-1.6-.3-.6-.6-1.2-.7-1.9-.2-.7-.2-1.4-.3-2.1s0-1.4,0-2v-.4c0-.8,0-1.6,0-2.4,0-.8,0-1.6.2-2.2l.4-1.9h0c.2-1.7.6-3,1.2-4.1.6-1.1,1.2-1.9,1.9-2.6s1.3-1.1,1.9-1.4,1.1-.4,1.4-.5c.4-.1.7-.1,1-.2.3-.1.6-.1,1-.1h.6c0,0,.3.1.6.1s.5.1.7.1.4.1.6.1.2.1.3.1l.5.2s0,.1.2.2c0,.1.2.2.3.4,0,.2.2.3.3.5s.2.3.2.4c.2.3.3.7.3,1.1,0,.4,0,.8,0,1.1h0v1.1c0,.2,0,.4,0,.6s0,.5,0,.8l-.6.7c0-.2-.2-.3-.3-.4,0-.1-.3-.1-.4-.2,0-.1-.3-.1-.5-.1s-.4-.1-.6-.1v-.4l-.4.2c0-.1,0-.1,0-.1,0,0,0,0-.2.1s-.2.1-.2.1c0,0-.3-.1-.6-.1-.3-.1-.5-.1-.6-.2v-1.1c0-.3,0-.7,0-1s0-.7-.2-1c0,0,0,.1-.2.1,0,.1-.2.1-.2.2,0,.1-.2.2-.3.3,0,.1-.2.2-.2.2,0,.2-.3.4-.3.6,0,.2-.2.4-.4.5h0c0,.1,0,.2,0,.2,0,0,0,.1,0,.1,0,.1-.2.2-.3.5,0,.2-.2.3-.2.4l-1.1,4.1v.4c0,.6,0,1.2,0,1.8,0,.6,0,1.2,0,1.8s0,1.2,0,1.9c0,.6,0,1.2.2,1.9,0,.2,0,.4,0,.6,0,.2,0,.4,0,.7,0,.2,0,.5.2.8l.2.3,1.8-5.2c0-.1,0-.1,0-.3s0-.3,0-.4c-.6-.7-.5-.7-.5-.8ZM56.8,105.1c.2.4.2.8.2,1.2s0,.9.2,1.2h0v-.4h0c0-.2,0-.4,0-.7,0-.3,0-.6,0-1s0-.7,0-1.1c0-.4,0-.7,0-.9v1.7h0ZM58.7,108.5c0,.2,0,.4.3.4s.2,0,.2-.1c0-.2,0-.3-.2-.4,0-.1-.2-.2-.3-.2h0v.3ZM63.7,111.9h0q-.1,0,0,0h0Z"/>
    <path class="st0" d="M76,111.2c0-.1,0-.2,0-.4s0-.3,0-.4c0,0,0-.1,0-.2,0-.1,0-.2,0-.3,0-.1,0-.2-.2-.2q0-.1-.2-.1c0,0-.2.1-.4.1s-.3.2-.5.3c0,.1-.3.2-.4.3s-.2.1-.3.1,0,0,0-.1h-.2c0-.1,0,0,0,0h0v-.2q-.2.1-.4.1c-.2.1-.3.1-.4.1s0,0,0-.1h0c0-.1.2-.2.3-.3q0-.1,0-.1c0-.1,0-.1,0-.1,0-.6,0-1.1,0-1.7s0-1.1,0-1.7v-2.6c0-.3,0-.7,0-1.1s0-.7,0-1c0-.3,0-.4-.2-.5h0c0-.1-.2-6.8-.2-6.8h0v-.7c0-.3,0-.8,0-1.5s0-1.4,0-2.1c0-.7,0-1.3-.2-1.8s0-.8,0-.8h0v-.3c0-.2,0-.4,0-.5,0-.1,0-.1,0-.1h-.2c0-.1,0-.2.2-.2s0-.1.2-.1c0,0,0,0,0,.1,0,0,0,.1,0,.1,0,0,0-.1.2-.2,0-.1,0-.2.2-.2,0,.2.2.2.4.3,0,0,.2.1.4.1s.3.1.4.1c0,.1.2.2.3.4,0,0,0-.1,0-.1s0-.1,0-.1c0,0,0,.1.2.1s0,.1.2.2q0-.1,0-.2t0-.2c0,.1.2.2.4.2,0-.1,0-.2,0-.2,0,0,.2.2.4.6s.3.9.4,1.4.2,1.1.4,1.6,0,.8.2.9v.8c.3,1.4.4,2.9.6,4.3.2,1.4.2,2.9.2,4.4v.2c0,.1,0,.2,0,.4,0,.1,0,.2,0,.3h.2v.3c0,.3,0,.6,0,.9,0,.3,0,.8,0,1.5v.9c0,.4,0,.8,0,1.2v.2c0-.1-.2-.2-.2-.5v-.7c0,.1,0,.1,0,.2s0,.1,0,.1l-.2,1.6h.2l2.3-1c0,0,.2,0,.4-.1.2-.1.3-.1.5-.1.2-.1.3-.1.4-.1,0-.1.2-.1.2-.1l4.2-.7q0,0,.2.1c0,.1.2.1.2.1.2,0,.3.1.4.1q0,.1.2.1,0,.1.2.1c0,.1.2.1.2.1h0c0,.1.2.4.2.4,0,0,0,.1-.2.1q0,.1-.2.2h0c0,.1-.3.3-.3.3q0,.1,0,.2c0,.1,0,.2,0,.3,0,.1,0,.2,0,.3q0,.1-.2.1h0c0,0-.2,0-.4.2-.2.1-.4.1-.5.1h-.2l-6.3,2.6h0c0,0-.2.1-.2.1l-1.7.6c0,0-.2,0-.4-.1.4.3.2.2.2.1ZM73.6,109.5c0-.1-.2-.1-.2-.2h0v-.2c0,.2,0,.3,0,.4.2.1.3.1.3,0ZM73.4,107.9v.5c0,.2,0,.4.2.6v-2.6c0,.2-.2.5-.2.8v.7ZM73.9,110.7q0,0,0-.1c0,.1,0,.1,0,.1ZM74.3,105v-1.3c0-.4,0-.8,0-1l.3,1.4h0v.3c0,.1,0,.2,0,.2v.5c0,.6,0,1.3,0,1.8,0,.6,0,1.2,0,1.8q0,0,.2-.1c0,0,.2-.1.4-.1,0-.1.2-.1.4-.1,0-.1.2-.1.2-.1v-.8c0,0,.2.1.2.2s0,.3,0,.4v-.9c0,0-.2.1-.3.1q0-.1,0-.2c0-.1,0-.2,0-.2,0,0,0,.1,0,.2,0-.1,0-.2,0-.4s0-.4,0-.6c0-.2,0-.4,0-.6,0,.1-.2.1-.2.1,0-.1,0-.4-.2-.6,0-.2,0-.6-.2-.9,0-.3,0-.6-.2-.9,0-.3-.2-.6-.3-.9v1.9c0,.1,0,.3,0,.4v.5q-.1,0-.1,0ZM74.3,107.7q0,.1,0,.1h0ZM74.5,105.4h0q0,0,0,0h0q0,0,0,0h0q0,.1,0,.1,0,.1,0-.1ZM75,107.6q0-.1,0-.2c0-.1,0-.1.2-.1v.2c0,.1,0,.1,0,.2q-.2,0-.2,0ZM75.1,109.2c0,0,0,.1,0,.1,0-.1,0-.1,0-.1ZM75.2,107.8h0q0,0,0,0h0v.2h0q0,0,0-.2c0,0,0,0,0,0ZM75.7,110.4c0,.1,0,.2,0,.2,0,0,0,0,0-.2ZM76.3,111.2h0c0-.1,0-.2,0-.2v.2ZM86,107.5h.2-.2Z"/>
    <path class="st0" d="M94.5,111.4c-.4-.1-.9-.2-1.5-.3s-1.2-.2-1.8-.5c-.6-.2-1.1-.6-1.5-1.1s-.8-1.2-.9-2.2l-.5-3.4v-.6c0-.7,0-1.4,0-2.2s0-1.5,0-2.1c0-.9,0-1.9,0-3,0-1.1.2-2.2.3-3.2q0-.1,0-.2v-.4l.6-3.8v-.9c0-.1,0-.2,0-.2l.2-1h.4c.2,0,.4.1.5.1,0,.1.2.1.3.2,0,.1.2.1.2.2,0,.1.2.1.3.1s.2-.1.4-.2c0-.2.2-.3.2-.4q0,.1.2.2c0,.1.2.1.2.1,0,0,.2.1.2.1q0,.1,0,.2c.8,0,1.4.2,1.8.7.4.4.6,1.1.6,1.9h0v.4c0,.9,0,1.8,0,2.8,0,.9-.2,1.9-.4,2.8h0c0,.1.2-1,.2-1,0,0,0-.1,0-.3,0-.2,0-.4.2-.7,0-.2,0-.5.2-.8,0-.2,0-.4,0-.4v1c-.3,1.6-.5,3-.6,4.4s0,2.8,0,4.2v2.2c0,0,.4,2.8.4,2.8,0-.1.4-.2.7-.5.3-.2.6-.5.9-.8s.6-.6.9-.9c.2-.3.4-.5.4-.7v-.2c0-.1,0-.2,0-.4,0-.2,0-.5,0-.9,0-.4,0-.9.2-1.6,0-.7.2-1.5.3-2.5,0-1,.2-2.2.4-3.6v-1.3h0c0-.1-.6-6.5-.6-6.5v-.2c0,0,0-.1,0-.1.3,0,.6.1.8.2.3.1.5.2.7.3s.5.2.7.3.5.2.8.2,0,0,.2-.1c0,0,0-.1.2-.1.3.1.6.1.7.2.2.1.3.3.4.5s.2.4.2.6c0,.2,0,.4.2.5l.2,1.8h0v.2h0v2.1c0,.3,0,.9,0,1.7s-.2,1.8-.3,2.9-.3,2.2-.5,3.4-.4,2.3-.6,3.3l-1.2,3.3v.9c0,0-.2-.1-.2-.1,0,0-.2.1-.2.2,0,.2,0,.3-.2.3-.9.6-1.9,1.1-3.1,1.4-.4.5-1.5.7-2.6.7ZM90,105.2s0,.1,0,.2,0,.2,0,.4,0,.2,0,.4,0,.2,0,.2h.2v-.4c0-.4,0-.9-.2-1.4s-.2-.9-.2-1.4,0-.2,0-.3c0-.1,0-.2,0-.4,0-.7,0-1.4,0-2.1v-3.7c0-.1,0-.2,0-.3q0-.1,0-.2h0c0-.1,0,0-.2.4s0,.7,0,1.1,0,.9,0,1.3v.9c0,.8,0,1.4,0,2.1,0,.7,0,1.4,0,2.1v1.1ZM99.3,105.1c0,.1,0,.1.2.1.2,0,.2-.1.3-.3,0-.2,0-.4,0-.6v-.5c0,.1-.2.1-.2.2s0,.2,0,.4,0,.2,0,.4c0,.1-.1.1-.2.3ZM100.3,105.3v.2h0c0,0,.2,0,.4-.1,0,0,.2-.1.2-.1v-1.7c0,0-.2,0-.2.1q0,.1-.2.1v-.2l-.2.2c0-.2,0-.4,0-.5s0-.2.2-.3,0-.2.2-.4c0-.1,0-.3,0-.5,0,.1-.2.1-.2.2,0,.1,0,.2,0,.4,0-.1.2-.1.2-.1,0,.2,0,.2-.2.3s-.2.1-.2.3,0,.2,0,.4c0,.2,0,.4,0,.6,0,.2,0,.4,0,.6s0,.3,0,.4,0,.1.2.1h0c-.2,0-.1,0-.1,0ZM100.9,101.2c0,.1,0,.2,0,.4v.2c0-.1,0-.2,0-.2v-.4Z"/>
    <path class="st0" d="M108.2,92.1l1.5-1.3h.2c0,0,.2.1.3.3v-.2h.2c0,.1.2,1.7.2,1.7h0c0-.1,0-.2,0-.2,0,0,0,.1,0,.4,0,.3,0,.6,0,1l.2,1.4h.2l1.7-2.2c0-.1.2-.3.3-.4,0-.2.2-.3.2-.5h0c0-.2,0-.2,0-.3l.4-1.1c0-.1,0-.2,0-.2,0-.1,0-.2,0-.2h0c0-.1-.2,0-.2,0,0-.1,0-.2,0-.3,0-.1,0-.2,0-.3,0-.2,0-.4,0-.6,0-.2,0-.4-.2-.6-1.2.2-2.3.6-3.3,1.4l-.9.7h-.2q0-.1,0-.1c0-.1,0-.1,0-.2h0c0-.2,0-.2,0-.2h0c0-.1-.2-.4-.2-.4h.2c0-.1,0-.1-.2-.2,0-.1-.2-.2-.2-.2l-.2.2h0q0,0,0,0t-.2.1c0-.1,0-.2,0-.4,0-.1.2-.2.2-.3l-.4-.2c0,.2,0,.4-.2.6,0,.2-.2.3-.5.3h-.2c0,0-.2,0-.4-.1s-.2-.1-.2-.2q0,.2-.2.2c0,0,0-.1,0-.2s0-.2-.2-.2h0l1.8-1.5,3.5-1.2h.2c0,0,.3,0,.5-.1s.4-.1.6-.1c.2-.1.4-.1.6-.1.2-.1.3-.1.4-.1.2.1.4.1.6.1.2.1.3.1.5.1q.2.1.4.1c0,.1,0,.2.3.2.2.1.4.1.6.2.2.1.4.2.6.3s.4.2.5.5c0,.1.2.2.3.6s.2.5.2.6h0c0,.2,0,.4.2.6s.2.3.4.4c0,.2,0,.4,0,.6,0,.2,0,.4,0,.5h0q0,0,0,0c0-.1,0-.1.2-.1,0,.1,0,.3,0,.4,0,.1,0,.3,0,.5v-.2c0,.4,0,.8,0,1.2s-.2.8-.5,1.1l1.7.6c.2,0,.4.1.6.2.2.2.4.2.6.2s0,.1.2.1c0,.1.2.2.3.2,0,.1.2.2.2.3,0,.1,0,.2,0,.2h0c0,.1,0,.2.2.3,0,.2,0,.4.2.6,0,.2,0,.5,0,.8s0,.5,0,.6v.2c0,.1,0,.4,0,.9,0,.6-.2,1.2-.4,2.1-.2.8-.5,1.8-.9,2.7s-.9,1.8-1.5,2.6-1.4,1.5-2.3,2c-.9.6-2.1.8-3.3.8h-.3s0,0,0,.1h0c-.2.1-.4.2-.6.3-.2.2-.2.4-.2.8v.2h-.2c-.2,0-.3-.1-.3-.2,0-.1,0-.2,0-.3,0-.1,0-.2-.2-.3s-.2-.1-.5-.1-.2.1-.4.2c-.2.1-.3.2-.3.3s0,.1,0,.3c0,.2,0,.3,0,.3,0,.1,0,.2,0,.2,0,.1-.2.1-.2.1,0,.1-.2.1-.3.1s-.2.1-.2.1c0-.1,0-.2-.2-.4s0-.3,0-.4,0-.2,0-.2v-.4c0-.2,0-.6,0-1s0-1.1-.3-1.9c0-.1-.2-.1-.2-.2q0-.1,0-.2v.2-.6l-1.6-15.2h0v-.8c0,0,0,.5,0,.5v-.5c0,.1.2.2.3.2s0,0,0-.1l.4.6.2,1.3ZM108.9,111.1h0v.2c0-.1,0-.1,0-.2,0,0,0-.1,0,0h0ZM112.7,106c0,.1,0,.1,0,.1.9,0,1.8-.6,2.6-1.9.9-1.2,1.7-3.2,2.4-5.9,0-.1-.2-.2-.2-.4v-.6h0v-.2c0-.1,0-.2-.2-.4,0-.1-.2-.2-.3-.2l-4.9,1.8c0,.1-.2.2-.4.3,0,.1-.2.2-.2.4l.5,3.4c0,0,0,.1,0,.2,0,.2,0,.5,0,.8,0,.2,0,.5.2.8,0,.2.2.5.2.8,0,.2,0,.5,0,.8q.2,0,.1.2c0-.1,0,0,0,0ZM115.5,106.2l.9-.6c0,0,.2.1.2.2.2-.1.4-.2.5-.3,0-.2.2-.3.4-.5,0-.2.2-.3.2-.4,0-.1,0-.2,0-.2h0c0-.1,0-.1,0-.2q0-.1,0-.2,0,0,0-.2,0-.1,0-.2c0,0,0-.2.2-.2l-.3-.2h-.2c-.2.1-.4.3-.6.4-.2.1-.4.2-.6.4s-.4.3-.5.5l-.3.6h.2c0,0,0,.1,0,.2l-.6.6.3.3h0ZM117,104.3c.3-.2.5-.4.6-.5h0s0,0-.2,0c0,.1-.2.2-.5.4ZM117.9,103.6h0q0,.1,0,0h0q0-.1,0,0Z"/>
  </g>
  <g>
    <path class="st0" d="M41,70c1.9,0,3,.8,3,2.5s-.9,2.3-2,2.4h0c.4.3.7.5,1.1,1.2l1.6,2.8h-1.2l-1.7-2.9c-.3-.6-.8-.9-1.4-.9h-.7v3.7h-1v-8.9h2.3ZM39.8,74.3h1.1c1.2,0,2-.5,2-1.8s-.7-1.7-2.1-1.7h-1.1v3.5h0Z"/>
    <path class="st0" d="M45.9,78.9v-6.1h3.4v.8h-2.5v1.9h2.2v.8h-2.2v1.9h2.6v.8h-3.5Z"/>
    <path class="st0" d="M51.4,73.9c0,.2,0,1.3,0,1.8v3.2h-.9v-6.1h1.2l1.8,3.4c0,.2.6,1.2.8,1.5h0v-4.9h.8v6.1h-1.1l-1.9-3.5c-.2-.3-.7-1.2-.9-1.5h0Z"/>
    <path class="st0" d="M57.6,73.9c0,.2,0,1.3,0,1.8v3.2h-.9v-6.1h1.2l1.8,3.4c0,.2.6,1.2.8,1.5h0v-4.9h.8v6.1h-1.1l-1.9-3.5c-.3-.3-.7-1.2-.9-1.5h0Z"/>
    <path class="st0" d="M63,72.8h.9v6.1h-.9v-6.1Z"/>
    <path class="st0" d="M66.3,73.9c0,.2,0,1.3,0,1.8v3.2h-.8v-6.1h1.2l1.8,3.4c0,.2.6,1.2.8,1.5h0v-4.9h.8v6.1h-1.1l-1.9-3.5c-.3-.3-.8-1.2-1-1.5h0Z"/>
    <path class="st0" d="M75.9,73.3l-.6.6c-.2-.2-.6-.4-1.2-.4-.9,0-1.8.4-1.8,2.3s.6,2.4,1.8,2.4.8-.1.9-.2v-2.2h.9v2.7c-.4.3-1,.6-2,.6-1.6,0-2.4-1.1-2.4-3.1s1.2-3.2,2.7-3.2c1-.1,1.5.3,1.7.5Z"/>
    <path class="st0" d="M77.3,78.9v-6.1h3.4v.8h-2.5v1.9h2.2v.8h-2.2v1.9h2.6v.8h-3.5c0-.2,0-.1,0-.1Z"/>
    <path class="st0" d="M82.8,73.9c0,.2,0,1.3,0,1.8v3.2h-.9v-6.1h1.2l1.8,3.4c0,.2.6,1.2.8,1.5h0v-4.9h.8v6.1h-1.1l-1.9-3.5c-.2-.3-.7-1.2-.9-1.5h0Z"/>
  </g>
  <path class="st1" d="M29.7,52.1q0,0,0,0t-.1-.2c.1,0,0-.2-.1-.3h0c0-.2-.1-.2-.1-.2h0c0-.2-.1-.3-.2-.3,0,0-.1,0-.1,0h-.1c0,0-.1-.2-.1-.2,0,0-.1,0-.1,0h-.1c0,0-.1,0-.1-.2-.1,0-.1,0-.1,0,0,0-.1,0-.1,0h0q0,0-.1,0c-.1,0-.1,0-.1,0,0,0,0,0-.1,0s-.1,0-.1,0h0c-.1,0-.2-.2-.3-.2-.1,0-.2,0-.3,0h-.2c-.1,0-.1,0-.2,0h0c-.2,0-.4-.2-.6-.3-.1,0-.1,0-.1,0-.1,0-.1,0-.2,0h-.2c0,0-.1-.2-.1-.2h0c-.1,0-.1,0-.1,0h0l.3.3s-.1,0-.1,0h0c-.1,0-.2,0-.3,0h-.1s-.1,0-.1,0c-.1,0-.1,0-.1,0h-.1s-.1,0-.1,0h-.1c-.1-.2-.2-.2-.3-.3q-.1,0-.2,0-.1,0-.2,0h-.1c0-.2-.1-.2-.1-.2h-.1s-.1,0-.1,0c-.1,0-.2,0-.3,0s-.1,0-.1,0h0c-.1,0-.1,0-.1,0-.1,0-.2,0-.3,0s-.1,0-.1,0h0s-.1,0-.1,0h0c-.1,0-.1,0-.1,0h0c-.1,0-.2,0-.4-.2h-.3q0,0-.1,0h0c-.1,0-.1,0-.1,0h0q-.1,0-.2,0h0q-.1,0-.2,0c-.1,0-.3,0-.4-.2h0c-.1,0-.2,0-.2,0h0c-.1,0-.2,0-.3-.2q-.1,0-.2,0-.1,0-.3,0h-.1q-.1,0-.2,0c-.1,0-.1,0-.1,0-.1,0-.1,0-.1,0-.1,0-.2,0-.4-.2h-.1c-.1,0-.3-.2-.4-.2h-.1c-.1,0-.1,0-.1,0h-.1q-.1,0-.2,0c-.1,0-.3-.2-.4-.2,0,0-.1,0-.1,0h-.1q-.1,0-.2,0-.1,0-.2,0c-.1,0-.2,0-.3-.2h0q-.1,0-.2,0s-.1,0-.1,0h-.1c-.1,0-.2,0-.3-.2h0c-.1,0-.1,0-.1,0h0q-.1,0-.2,0h0c-.1,0-.2,0-.2-.2-.1,0-.2,0-.3-.2h-.1c-.1,0-.1,0-.1,0-.1,0-.2,0-.3-.2s-.2,0-.2,0h0c-.1,0-.1,0-.2,0-.1,0-.2,0-.4-.2-.1,0-.2,0-.2,0q-.1,0-.1,0-.1,0-.2,0c-.1,0-.1,0-.2,0,0,0-.1,0-.1,0h-.1q-.1,0-.1,0,0,0-.1,0h-.1q0,0-.1,0-.1,0,0,.2s0,0,.1,0c0,0,.1.2.2.3h.1c.1.2.2.3.3.3h0c.1,0,.2.2.3.2h.1q0,0,.1,0h.1q0,0,.1,0s.1,0,.1,0h.1c0,0,.1,0,.1.2q.1,0,.2,0c.1,0,.2,0,.3.2h0c.1,0,.2.2.4.2h0c.3.2.6.4.9.5h0q.1,0,.2,0h0q.1,0,.2,0c.2,0,.4.2.6.3h.1q.1,0,.2,0h.1c.1,0,.1,0,.2,0h.1c.1,0,.1,0,.1,0h.1q.1.2.2.2c.1,0,.2,0,.2.2.1,0,.1,0,.2,0,.1,0,.2,0,.3,0s.1,0,.2,0c0,0,.1,0,.1,0h0q.1,0,.2,0c.1,0,.1,0,.1,0h.1c.1,0,.2.2.4.2q.1,0,.3,0h0s.1,0,.1,0h0c0,0,.1,0,.1,0,.1,0,.1,0,.1,0q.1,0,.2,0h.3c.1.2.2.2.3.3.1,0,.2,0,.3.2h0c.1,0,.2,0,.3.2h0c.1,0,.3.2.4.2h.5s.1,0,.1,0h0c0,0,.1,0,.1,0,.1,0,.2,0,.3.2.1,0,.2,0,.3.2h.1q.1,0,.1,0,.1,0,.2,0h.1c.1,0,.2,0,.2.2s.1,0,.1,0c.1,0,.1,0,.2,0h0q.1.2.3.2s.1,0,.1,0h0c0,0,.1,0,.1,0,.1,0,.2,0,.3.2h0c.1,0,.2,0,.3.2.1,0,.2,0,.3,0s.1,0,.1,0h.1q.1,0,.2,0h0c0,0,.1,0,.1,0,.1,0,.3.2.5.2s.1,0,.1,0c0,0,.1,0,.1,0h.2c.1.2.3.2.4.3h.2c.1,0,.1.2.1.2h0q.1,0,.2,0t.2,0h.1s.1,0,.1,0h0q0,.2.1.2h0c.1,0,.2,0,.3,0h0q.1,0,.2,0h.1c0,0,.1,0,.2,0h.1c-.4,0-.4,0-.3,0ZM15,44.4h0ZM17.4,45.7h0s.1,0,0,0q.1,0,0,0ZM15.9,43.8h0ZM26.7,50.9q0,0,0,0t0,0,0,0ZM19.7,46.6q0,0,0,0h0q0,0,0,0ZM16.3,44.9h0ZM14.1,43.2h0ZM14.1,43.2h0ZM13.9,43.1h0ZM16.4,44.7h0ZM16.7,44.7h0ZM15.3,44.1h0ZM15.5,44.4h0ZM16.5,44.2h0ZM14.9,43.9h0ZM14.9,44.1h0ZM15.1,43.9h0ZM14.7,43.9h0ZM15.8,44.6h0ZM23.7,49h0ZM23.9,48.9h0ZM24.2,48.4h0ZM28.7,51.1h0ZM26.9,50.6h0ZM27.3,50.4h0ZM28.3,51.3h0ZM26.2,49.9h0ZM26.2,49.7h0ZM25.8,49.7h0ZM25.8,49.7h0ZM25.2,49.4h0ZM26.8,49.9h0ZM25.9,49.4h0ZM25.9,50.2h0ZM26.2,50.2h0ZM26.3,50.4h0ZM26.3,49.4h0ZM25.8,49.3h0ZM22.5,48.1h0ZM22.3,47.7h0ZM22.1,48.2h0ZM23.2,48.2q0,0,0,0h0q0,0,0,0ZM19.2,46.1h0ZM21.3,47.5h0ZM21.3,47.4h0ZM21.3,47.4h0ZM19.1,45.8h0ZM18,45.6h0ZM17.2,45.4h0ZM23,48.6h0ZM24.5,49.2h0ZM27.2,50.9h0s-.1,0,0,0c-.1,0,0,0,0,0ZM25.1,48.9h0ZM23.4,48.4h0ZM18.5,45.6h0ZM14.2,43h0ZM16.3,45.1h0ZM16.3,45.1h0ZM16.3,45.1h0ZM16.8,45.2h0ZM18.5,46.1h0ZM19.4,46.6q-.1,0,0,0-.1,0,0,0-.1,0,0,0ZM19.7,46.7h0ZM20.8,47.3h0ZM24.4,49.5h0ZM25.2,50.1h0ZM26.3,50.7h0ZM28.8,50.9h0ZM28.3,50.9h0q.1,0,0,0h0ZM26.1,49.4h0ZM23.9,48.4h0ZM17.5,44.7h0ZM15.5,43.7h0ZM18.5,46.1h0ZM20.3,47.4q0,0,0,0,0,0,0,0h0ZM22.3,48.6h0ZM28.4,50.7h0q.1,0,0,0h0ZM28.5,50.7h0ZM28.2,50.6h0ZM18.3,45.4h0ZM13.9,43.6h0ZM15,44.4h0ZM19.1,46.7h0ZM19.1,46.7h0ZM21.7,48.2h0ZM22.2,48.6h0ZM23.9,49.6h0ZM28.7,51.6h0ZM28.9,51h0ZM27.7,49.8h0ZM25.5,48.8h0ZM14.2,44h0ZM19.8,47.2h0ZM22.5,48.8h0ZM26.7,51.2h0ZM29.5,51.5h0ZM28.5,50.4h0ZM21.8,46.8h0ZM17.3,44.4h0ZM14.2,44h0ZM26.7,51.2h0Z"/>
  <path class="st1" d="M18,20.2c-.1,0,.1.2.1.2h0c0,.2.1.2.1.3h0v.2h0c0,0,.1,0,.1,0h0c.1,0,.1.2.2.3h0s0,0,.1,0h0c0,0,.1.2.2.3.1.2.2.4.4.6.3.4.6.8,1,1.2h0c0,0,.1,0,.1,0,.1.2.3.4.5.6.3.2.4.6.7.8.2.2.4.4.6.6.3.3.6.7.9,1,0,0,.1,0,.1,0,.2.2.4.5.7.8h.1c.2.5.6.8.9,1.2h.1c.1.3.3.4.4.6,0,0,0,0,.1,0,.2.2.4.5.6.7h0l.2.2h0c.1.2.3.3.4.4.2.3.6.6.9.9h.1q.1.2.2.3c.2.3.5.6.8.9h.1v.2h.2c.1.2.2.3.3.5h0c.1.2.3.4.4.6s.3.3.4.5c.2.2.4.5.6.7h0c.2.2.4.4.6.6s.1,0,.1.2.1,0,.1,0c.2.2.4.4.6.6h0c.3.3.6.7.8.9h0c.2.3.5.6.8.9q0,0,.2.2c.2.2.4.4.6.7,0,0,0,.2.2.2s0,0,.2.2h0s0,0,0,0h0q0,0,.2.2t.2.2c0,.2.2.3.4.5s.3.4.5.6h0c0,.2,0,.2,0,.2h0c0,0,0,.2.2.3.2.2.4.4.6.6.2.2.4.3.6.5h0c0,0,0,0,0,0h.2c0,.2.3.2.3.3.3,0,.5,0,.6-.2,0,0,0,0,0,0h0c0,0,.2-.2.3-.2s0,0,0,0c0,0,0,0,0,0h0v-.2h0q0,0,0,0,0,0,0,0c0,0,0-.2,0-.3s0,0,0,0c0,0,0-.2,0-.2v-.2c0,0,0-.3-.2-.4,0-.2-.2-.5-.5-.7h0c-.3-.4-.7-.7-1-1.1-.4-.4-.9-1-1.4-1.4,0,0,0,0,0,0h0q0-.2-.2-.3h0c0,0,0-.2,0-.2h0c0-.3-.3-.4-.4-.6-.2-.2-.4-.4-.6-.6h0c0,0-.2-.2-.2-.3-.3-.2-.4-.4-.7-.6-.2-.2-.4-.4-.6-.6h0q0,0,0,0c0-.2-.3-.3-.5-.5-.3-.2-.6-.6-.8-.8-.2-.2-.4-.4-.6-.6h0c0-.2-.1-.2-.1-.3-.1,0-.3-.3-.4-.4-.4-.4-.8-.8-1.1-1.2-.2-.2-.3-.4-.5-.6h0v-.2l-.4-.2h0l-.2-.2c-.2-.3-.5-.6-.8-.9-.1,0-.2-.2-.3-.2h-.1c-.2-.3-.4-.5-.6-.7s-.3-.4-.5-.6-.3-.2-.3-.4c-.1-.2-.3-.4-.4-.5-.4-.4-.8-.8-1.1-1.2h0c-.1,0-.2-.2-.3-.2-.1,0-.4-.5-.5-.6h0c-.1-.2-.2-.3-.4-.5h-.1c0,0-.1-.2-.1-.2-.2-.2-.4-.4-.6-.7h0c-.1-.1-.2-.2-.2-.2h0s0,0-.1,0h0q-.1,0-.1-.2c-.1,0-.2-.2-.3-.3-.2-.2-.4-.5-.6-.7s-.2-.2-.3-.3h0c-.2-.2-.3-.2-.5-.4h-.1c0,0-.1,0-.1,0-.1,0-.2,0-.2,0-.2-.2-.5-.3-.8-.4-.2,0-.4-.2-.6-.3-.1,0-.1,0-.1,0h0q-.1,0-.2,0-.6.2-.6.3h0ZM32.6,37.6h0ZM34.5,38.6h0ZM32.8,37.4h0q0,0,0,0h0q0,0,0,0h0ZM34.3,38.3h0ZM37,41.6h0ZM37,41.6h0ZM37,41.6h0ZM34,37.1h0ZM34,38.7h0ZM35.4,38.6h0ZM34.1,37h0ZM34.2,38.9h0ZM33.4,35.8h0ZM36.7,41.8h0ZM33.1,35.9h0ZM26.5,28.1h0ZM23.1,25.5h0ZM21.5,23h0ZM21.3,23.1h0ZM21.9,23.7h0ZM24.2,26.2h0ZM23.2,24.9h0ZM26,29.5h0ZM27.6,31.5h0c0,0,0,0,0,0ZM28.2,32.5h0ZM29.3,31h0c0,0,0,0,0,0h0ZM23,24.6h0ZM20.2,21.2h0ZM27.4,31.5h0ZM23.5,24.4h0ZM22.9,24.7h0ZM32.3,34.1h0ZM22,22.9h0ZM20,23.4h0ZM22.7,26.5h0ZM35.6,37.4h0ZM25.3,26.4c0,0-.1,0-.1,0h0q.1,0,.1,0Z"/>
  <path class="st1" d="M96.7,51.4q0,0,0,0t0,0c0,0,0,0,0,0h0q0,.2-.2.2c0,0,0,0,0,0h.3v.2h0c0,0,0,.2,0,.2h0c0,0,0,0,0,.2h-.3q0,0,0,0h.2q0,0,0,0h0v.2h0q0,0,0,0c0,0,0,0,0,0h.2c0,0,.2,0,.3-.2h0v.2c0,0,0,0-.2,0h0c0,0,0,0,0,0h0s0,0,0,0,0,0,0,.2h0c0,0,0,0,0,0,0,0,0,0,0,0h.2c0,0,0,0,0,0,0,0,0,0,0,0h0c0,0,0,0,.2,0h.2q0,0,0,0c.2,0,.3,0,.5-.2h0c0,0,.2,0,.4-.2h.2s0,0,0,0h0s0,0,0,0,0,0,0,0h0s0,0,0,0h.2,0s0,0,0,0h0c0,0,0,0,0,0h0c0-.2.2-.2.3-.2h0s0,0,0,0c0,0,.3,0,.4-.2h0c0,0,0,0,.2,0h0c0,0,0,0,0,0,0,0,0,0,0,0,0,0,.2,0,.2,0h0c.2,0,.5-.2.8-.4,0,0,.2,0,.3-.2,0,0,.2,0,.3-.2h0c0,0,0,0,0,0,0,0,.2,0,.3-.2,0,0,0,0,0,0,0,0,.2,0,.2,0h0c0,0,.2,0,.2,0h0c.2,0,.4-.2.7-.4,0,0,0,0,0,0s0,0,0,0c0,0,.2,0,.2,0h0c0,0,.2,0,.3-.2h0c0,0,0-.2.2-.2,0,0,0,0,0,0,0,0,0,0,.2,0q0,0,.2,0h0c0,0,.2,0,.4-.2h0c0,0,0,0,.2,0h0s0,0,0,0c0,0,.2,0,.2,0h0c0,0,.2,0,.3-.2,0,0,.2,0,.3-.2l.2-.2h0c0,0,0,0,.2,0s.2,0,.3-.2q0,0,.2,0,0,0,.2,0h0c0,0,.2,0,.2,0h0c0-.2.3-.2.4-.3h0c0,0,0,0,.2,0h0c0,0,.3,0,.4-.2h0c0,0,0-.2.2-.2h0q0,0,0,0h0s0,0,0,0h0c0,0,0,0,0,0,0,0,.2,0,.2-.2h0q0,0,.2,0h0c0,0,.2-.2.3-.2s0,0,0,0h0c0-.2,0-.2,0-.2h0c0,0,0,0,0-.2h0c0,0,0,0,0-.2h-.2c0,0-.2,0-.4,0h-.2s0,0,0,0h-.4c0,0,0,0,0,0h0q0,0,0,0,0,0-.2,0h0c0,0,0,0,0,0h-.4q0,0-.2,0,0,0,0,0h0c0,0,0,0-.2,0h0q0,0,0,0c0,0,0,0,0,0,0,0,0,0-.2,0h0c0,0,0,0,0,0h0c0,0,0-.2,0-.2,0,0,0,0,0,0,0,0,0,0,0-.2h0c0,0,0,0,0,0,0,0,0,0-.2.2h0s0,0,0,0,0,0,0,0h0c0,0,0,.2,0,.2s0,0-.2,0h0q0,0,0,0h0q0,0,0,0c0,0-.2,0-.2.2,0,0,0,0,0,0,0,0,0,0,0,0h-.2c0,0,0,0,0,0,0,0,0,0,0,0h0q0,0-.2,0c0,0,0,0,0,0h0q0,0,0,0s0,0,0,0h0c0,0-.2,0-.3.2h0c0,0,0,0,0,0h0c0,0,0,0,0,0,0,0,0,0,0,0s0,.2-.2.2,0,0,0,0,0,0,0,0h0c0,0,0,0,0,0,0,0,0,0,0,0s0,0,0,0c0,0-.2,0-.2,0h0c0,0,0,.2,0,.2h0q0,0,0,0h0c0,0,0,.2,0,.2h0c0,0-.2,0-.2,0h0q0,0,0,0c0,0,0,0-.2,0,0,0-.2,0-.2,0q0,0,0,0h0c0,0-.2,0-.2,0h0c0,0,0,0-.2,0s0,0,0,0q0,0,0,0h0q0,.2-.2.2h0q0,0,0,.2c0,0,0,0-.2,0h0c0,0,0,0-.2,0h0s0,0,0,0h0c0,0,0,0-.2,0,0,0,0,0,0,0h0c0,0-.2,0-.2.2h0c0,0,0,0,0,0q0,0,0,0h0c0,0,0,.2,0,.2q0,0-.2,0s0,0,0,0c0,0,0,0,0,0h0c0,0,0,0,0,0q0,0,0,0h0q0,0,0,0h-.2v.2h0s0,0,0,0h0q0,0-.2,0h0c0,0,0,0,0,0h0c0,0-.2,0-.3,0h0c0,0,0,0,0,.2h0q0,0,0,.2c0,0,0,0,0,0h0c0,0,0,0,0,0,0,0,0,0,0,0h0c0,0-.2,0-.2,0h0c0,0,0,0,0,0,0,0,0,0,0,0,0,0,0,0,0,0h-.2c0,0,0,.2,0,.2h0c0,.2,0,.2,0,.2h-.2c0,0,0,.2,0,.2s0,0,0,0h0c0,0,0,.2-.2.2h0c0,0,0,0,0,0,0,0,0,0,0,0h0c0,0,0,0,0,0h0q0,0,0,0c0,0,0,0,0,0h0c0,0,0,.2,0,.2,0,0,0,0,0,0l1.3-1.1ZM98.7,50.2h0ZM105.3,46.9h0ZM104.3,47.6h0ZM108.7,45h0ZM98.5,50.8h0ZM99.1,50.2h0ZM98.7,50.8h0ZM101,50.2h0ZM101.2,50.1h0ZM99,51.6h0ZM99.3,51.3h0ZM99.4,51.3h0ZM99.9,50.9h0c0,0,0,0,0,0h0ZM99.3,50.6h0ZM99,50.7h0ZM98.3,51h0ZM99.6,51.4h0ZM104.5,48.7h0q0,0,0,0h0ZM104.6,48.7h0ZM104.8,48h0ZM105.2,48.2h0ZM105.4,48.3h0ZM105.6,48.1h0ZM106,48.1h0ZM106,47.8h0ZM107.5,46.4h0ZM106.7,47.3h0ZM109.3,45.2h0ZM109.3,45.2h0ZM109,45.3h0ZM108,46.5h0ZM108.5,45.9h0ZM109.5,45.2h0ZM106.8,46.4h0ZM106,47.4h0ZM104.5,48h0ZM104.5,48.1h0ZM103,49.5h0ZM103.2,49.6h0ZM104,48.4h0ZM103.6,48.6h0ZM103.6,48.6h0ZM103.9,48.6h0ZM104.2,48.6h0ZM103.9,49.2h0ZM103.9,49.2h0ZM105.1,48.2h0ZM106,48.2h0ZM109.1,46.1h0ZM107.7,46h0ZM105.7,47.4s0,0,0,0c0,0,0,0,0,0h0ZM104.7,47.9h0ZM102.4,48.8h0ZM102.3,49.1h0ZM97,52.1h0ZM96.9,52.1h0ZM98,52.1h0ZM97.1,52.2h0ZM100.5,50.9h0ZM103.5,49.5h0ZM106.9,47.4h0ZM110.3,45.8h0ZM109,45h0ZM105.1,47.4h0ZM104.6,47.5h0ZM101.1,49.8h0ZM97.6,51.7h0ZM97.3,51.6h0ZM97,52.4h0ZM105.2,48.6h0ZM109.3,46.4h0ZM110.9,45.3h0ZM100,49.7h0ZM96.7,52.1h0ZM98.2,52.1h0ZM103.4,49.8h0ZM103.4,49.8h0ZM108.8,46.6h0ZM109.3,46.4h0ZM110.5,45.6h0ZM111.2,45.2h0ZM110.8,44.9h0ZM108.5,45.1h0ZM104.9,47.4h0ZM104.1,47.8h0ZM98.7,50.3h0ZM96.9,52.4h0ZM102.1,50.2h0ZM102.5,50.1h0ZM105.2,48.7h0ZM106.7,48h0ZM109.2,46.6h0ZM110.3,44.7h0ZM107.4,45.7h0ZM101,49.1h0ZM100.3,49.3h0ZM97.4,52.7h0ZM111.4,44.8h0ZM109.7,44.8h0q0,0,0,0h0c0,0,0,0,0,0ZM106.4,46.2h0ZM101.2,49.1h0ZM100.5,49.2h0ZM97.3,51.1h0Z"/>
  <path class="st1" d="M43.1,17.9h0c0,0,0,0,0,0h0c0,0,0,.2,0,.2h0v.2h0v.2q0,0,0,.2h0q0,0,0,0h0c0,0,0,0,0,0,0,0,0,.2,0,.4h0c0,.2,0,.3,0,.5s0,.2,0,.2c0,.2,0,.4.2.6,0,0,0,.2,0,.2,0,0,0,0,0,.2,0,.2,0,.3.2.5,0,.2,0,.3.2.5q0,0,0,0h0c0,.3.2.6.3.8,0,0,0,0,0,.2h0q0,.2,0,.2h0c0,.3.2.6.2.8h0c0,.2,0,.3.2.5,0,0,0,.2,0,.4s0,0,0,.2c0,.3.2.5.3.8q0,0,0,0h0c0,0,0,.2.2.4q0,0,0,0c0,0,0,.2,0,.3h0c0,0,0,.2,0,.3h0c0,.4.2.7.4,1h0c0,0,0,.2,0,.3h0c0,0,0,0,0,0,0,0,0,.2,0,.2,0,0,0,0,0,.2,0,0,0,.2.2.4,0,0,0,.3.2.4,0,0,0,0,0,.2,0,0,0,.2,0,.2h0c0,0,0,.2.2.4h0c0,.2,0,.4.2.6h0q0,0,0,0c0,.2,0,.3.2.5,0,0,0,0,0,.2,0,0,0,.2,0,.4h0c0,0,0,.2,0,.2h0c0,0,.2.3.3.4h0c0,.2,0,.2,0,.3,0,0,0,.2.3.4,0,0,0,0,0,0,0,0,0,0,0,0q0,0,0,0h.2c0,0,0,0,0,0h0c0,0,0,0,0,0,0,0,0,0,0-.2h0q0,0,0,0h0c0,0,0,0,0,0h0v-.2h0v-.2h0c0,0,0,0,0-.2h0c0,0,0-.2,0-.2h0q0-.2,0-.3h0s0,0,0,0h0c0,0,0,0,0-.2,0,0,0,0,0,0h0q0-.2,0-.2c0,0,0-.2-.2-.3,0,0,0,0,0,0h0v-.2h0c0,0,0-.2,0-.2h0v-.2c0,0,0,0,0,0h0c0-.2,0-.2,0-.3h0q0,0,0-.2l-.2.5c0,0,0,0,0-.2h0c0-.2,0-.3,0-.3h0v-.2c0,0,0-.2,0-.2h0v-.2q0,0,0,0h0c0,0,0,0,0,0h0v-.2q0,0,0,0h0q0,0,0,0c0,0,0,0,0,0h0v-.2q0,0,0,0h0c0-.2,0-.2,0-.3,0,0,0-.2,0-.3h0c0,0,0-.2,0-.2,0,0,0-.2-.2-.4h0c0-.3,0-.4-.2-.5h0c0,0,0,0,0-.2h0v-.2h0q0-.2,0-.2h0c0-.2,0-.2,0-.3h0c0,0,0-.2,0-.2h0c0,0,0,0,0-.2,0,0,0-.2,0-.4h0s0,0,0,0h0c0,0,0,0,0-.2h0c0-.3,0-.4-.2-.6,0,0,0,0,0-.2,0,0,0,0,0,0h0c0,0,0,0,0,0h0c0,0,0-.2,0-.2q0,0,0-.2t0-.2,0,0c0,0,0-.2,0-.3,0-.2,0-.4-.3-.5h0q0,0,0,0h0c0,0,0-.2,0-.4,0,0,0,0,0,0q0,0,0,0h0c0-.2,0-.2,0-.2l-.3-.6q0,0,0,0,0,0,0-.2h0c0,0,0-.2,0-.2,0,0,0,0,0,0h0c0,0,0-.2,0-.2,0,0,0-.2,0-.3,0,0,0-.2-.2-.3-.2-.2-.2-.3-.3-.4,0-.2-.2-.4-.4-.5h0c0,0,0,0,0,0,0,0,0-.2-.2-.2,0,0,0,0,0,0h-.2c0,0,0-.2,0-.2h0c0,0,0,0,0,0h0s0,0,0,0q1.2.3,1.1.3h0ZM47.8,27.7h0ZM47.7,27.7h0ZM47.7,28.1h0ZM49.5,33.2h0ZM45.6,24.8h0ZM46.3,24.3h0ZM49.5,32.1h0ZM48.5,30.1h0ZM48.8,31h0ZM48.9,31.3h0ZM48.6,30.9h0ZM48.5,30.7h0ZM48.1,29.7h0ZM48.5,30.8h0ZM48.5,30.9h0ZM48,29.6h0ZM48.2,30h0ZM48.2,30.4h0ZM48.7,31.1h0ZM49.1,32h0q0,0,0,0ZM48.2,29.6h0ZM47.6,29.1h0ZM47.8,29.5h0ZM48.8,31.5h0ZM49,32.4h0ZM48.8,30.5h0ZM45.7,24.5h0ZM44.3,21.4h0ZM43.6,18.9h0ZM46.5,26.2h0ZM47.2,27.7h0ZM44.7,20.9h0ZM45.5,23h0ZM44.4,20.8h0ZM44.7,21.4h0ZM44.6,21.1h0ZM44.3,20.7h0ZM46.3,25.7h0ZM47,27.1h0ZM45.5,22.6h0ZM45,21.7h0ZM45.3,23.2h0ZM45.8,23.2h0ZM44.7,20.7h0ZM44.3,19.7s0,0,0,0c0,0,0,0,0,0ZM44,19.6h0ZM47.6,28.2h0ZM45.6,23h0ZM44.9,21.3h0ZM44.7,20.6h0ZM44.2,20.4h0ZM44.3,21.4h0ZM45.2,23.7h0ZM46.8,27.2h0ZM48.3,30.9h0ZM48.4,30.9h0ZM49.5,32.8h0ZM49.5,32.1h0ZM48.6,30.1h0ZM46.8,26.3h0ZM46.2,25.1h0ZM46.4,24.3h0ZM45.6,24.8h0ZM46.3,26.3h0ZM47.3,28.7h0ZM47.9,30.2h0ZM49.7,33.4h0ZM49.7,33.4h0ZM49.5,32.9h0ZM49,31.1h0ZM48.5,29.6h0ZM47.8,29.1h0ZM47.8,29h0ZM45.7,22.9h0ZM45.2,21.8h0ZM44.7,20.6h0ZM44.3,19.7h0ZM43.9,18.9h0ZM43.4,18.4h0ZM44.8,22.8h0ZM46.3,26.5h0ZM47,27.7h0ZM47.9,30.2h0ZM48,30.3h0q0-.1,0,0h0ZM48.7,30.1h0s0,0,0,0c0,0,0,0,0,0ZM44.7,20.3h0ZM44.3,19.6h0ZM43.6,19.9h0ZM44.2,21.4s0,0,0,0h0ZM44.2,21.6h0ZM46.3,26.5h0ZM48,30.5h0ZM49.5,33.1h0ZM47,25.7q0,0,0,0h0q0,0,0,0ZM46.4,24.4h0ZM43.8,20.3h0ZM44.3,21.6h0ZM48,30.5h0ZM50,32.5h0ZM48.7,29.6h0ZM47,25.7h0ZM43.8,20.9s0,0,0,0c0,0,0,0,0,0ZM47.9,30.4h0ZM49,32.8h0ZM50,32.5h0ZM43.1,17.9h0ZM48.7,32.7h0q0,0,0,0,0,0,0,0ZM50,33.2h0ZM50,32.6h0ZM48.7,29.4h0Z"/>
  <path class="st1" d="M62.2,4.4c0,0,0,0,0,0h0c0,0,0,0,0,.2h0c0,.2,0,.3-.2.5h0v.2h0c0,.2,0,.3,0,.4s0,.2,0,.3,0,0,0,.2h0v.2c0,0,0,.2,0,.4s0,.3,0,.5c0,0,0,.2,0,.2h0c0,0,0,.3,0,.4v.2c0,0,0,.3,0,.5h0c0,0,0,.2,0,.4h0v1h0v3.6h0v.2h0v.9c0,.2,0,.4,0,.7h0v.5h0q0,0,0,0v.4h0c0,0,0,0,0,0,0,0,0,0,0,.2h0v.5h0v.2h0v.3h0c0,0,0,.2,0,.4h0v.3q0,0,0,.2h0v.4h0v.9c0,0,0,0,0,0h0q0,.2,0,.2h0c0,0,0,.2,0,.2,0,0,0,0,0,0v.2h0s0,0,0,0v.2h0c0,.2,0,.3,0,.4v.8h0v.3h0v.6h0v.2h0v.8h0v1.1h0v.3h0v.3h0v.2h0v.8h0v.3c0,.2,0,.4,0,.6v.6h0v.2h0q0,0,0,.2t0,.2c0,0,0,.2,0,.3,0,0,0,.2,0,0q0,0,0,0h0v.5h0c0,0,0,0,0,0,0,0,0,0,0,0h0c0,.2,0,.3,0,.3h0c0,0,0,0,0,0q0,0,0,.2c0,0,0,.2.2.2q0,0,0,.2s0,0,0,0v.2c0,0,0,.2,0,.2h0c0,.2,0,0,0,.2h0v.3h0c0,0,0,0,0,0,0,0,0,0,0,0,0,0,0,0,0,0,0,0,0,0,0,0s0,0,0,.2q0,0,0,0c0,0,0,0,0,0,0,0,0,0,0,0,0,0,0,.2,0,.2,0,0,0,0,0,0,0,0,0,0,0,0q0,0,0,0c0,0,0,0,0,0q0,0,0,0c0,0,0,0,0,.2,0,0,0,0,.2,0q0,0,0,0,0,0,.2-.2h.2c0-.2,0-.4.2-.3h0c0,0,0,.2,0,.2h0v-.3s0,0,0,0q0,0,.2,0h0c0,.2,0,.3,0,.5h0c0,.2,0,.3,0,.3h0s0,0,0,0c.2,0,.2,0,.2.1s0,0,0,0h0v-.2c-.2,0-.2-.2-.2-.4s0,0,0,0h0q0-.3,0-.5c0,0,0,0,0,0v-.3h0v-.3h0v-.2h0c0,0,0,0,0,0h0c0,0,0,0,0,0,0,0,0,0,0,0,0,0,0-.2,0-.3h0c0-.2,0-.3,0-.3h0c0-.2,0-.3,0-.4h0v-.5h0v-.6h0c0-.2,0-.3,0-.4h0v-.2h0v-.2s0,0,0,0,0-.2,0-.3v-.6h0v-.5h0v-.2h0v-2.2h0v-.3h0v-.3h0v-.4h0c0-.2,0-.4,0-.7h0v-.2h0v-.2c0-.2,0-.3,0-.5s0-.4,0-.7v-.3h0c0-.2,0-.6,0-.8v-.2h0v-.3h0c0,0,0-.2,0-.3,0-.2,0-.3,0-.5h0c0-.2,0-.5,0-.7h0v-.6h0v-1.6h0v-.2c0-.4,0-.9,0-1.3h0v-.2h0v-2.4h0v-1.2c0,0,0,0,0,0h0v-.3h0v-.2h0v-.3q0,0,0-.2h0v-.5h0q0,0,0-.2v-.2h0c0-.2,0-.3,0-.5h0c0-.3,0-.5-.2-.8h0v-.2h0v-.6h0v-1c0-.2,0-.4,0-.6s0,0,0-.2h0c0,0,0-.2,0-.3h0q.2.2.2.4ZM61.3,23.2h0ZM63.3,20.6h0ZM63.1,14.3h0ZM61.7,29.4h0ZM62.7,13.9h0c-.1,0,0,0,0,0h0ZM62.8,20.4h0ZM62.8,30.2h0ZM61.9,18.3c0-.1,0,0,0,0h0ZM62.5,16.6h0ZM62.3,24.9h0ZM62.7,25.1h0ZM62,24.4h0ZM62.7,22.7h0ZM61.8,24.4h0ZM62.5,29h0ZM63.1,28.6h0ZM62.2,28.5h0ZM62.3,26.5h0ZM62.8,26.8h0q0,0,0,0,0,0,0,0ZM62.6,26.9h0ZM62.2,27.3h0ZM62.5,29h0ZM62.6,29.2h0ZM61.9,27.6h0ZM62.2,29.9h0ZM62.2,18.8h0ZM62.1,18.5h0ZM62,17.6h0ZM61.9,11h0ZM62.3,18.5h0ZM62.4,13.6h0ZM62.2,12.3h0ZM61.8,11.6h0ZM62,15.6h0ZM62.2,15.8h0ZM62.1,15.6h0ZM62.3,11.6h0ZM61.7,11.4h0ZM61.6,12.9h0ZM62,14.1h0ZM63,20.9h0ZM62.3,20.4h0ZM62.7,20.4h0ZM62.4,19.6h0ZM61.8,13.9h0ZM62.2,22.2h0ZM62,28.7h0ZM63.3,30.1h0ZM63.5,26.1h0ZM63.2,26.4h0ZM62.9,18.6h0ZM62.5,9.7h0ZM62.4,8.1h0ZM61.5,16.6h0ZM61.8,19h0ZM62,19.2h0ZM63.4,28.7h0ZM63.5,26h0ZM62.8,14.2h0ZM62.8,13.5h0ZM62.7,13.1h0ZM62.7,10.4h0ZM61.7,9.4h0ZM61.5,15.4h0ZM61.7,18.2h0ZM61.8,23.7h0ZM61.8,27.3h0ZM63.5,28.9h0ZM63.3,20.6h0ZM62.9,12.1h0ZM61.9,5.8h0ZM62,5.7h0ZM61.5,7.1h0ZM61.4,12.4h0ZM61.5,13.9h0ZM61.5,13.9h0ZM61.5,15.7h0ZM61.7,27.6h0ZM63.5,29h0ZM62.9,21.4h0ZM63,12.2h0ZM61.7,5.6h0ZM61.4,7.7h0ZM61.3,8.5h0ZM61.2,10.8h0ZM61.4,19.1h0ZM61.4,22.8h0ZM61.3,24.5h0ZM63.8,28.8h0ZM63.8,28.8h0ZM63.6,26.6h0ZM63.3,23.5h0ZM63.3,22.1h0ZM63.3,20.6h0ZM63.2,20.2h0ZM63.2,19.1h0ZM63.2,18.4h0ZM63.1,18.3h0ZM61.3,9.4h0ZM63.8,28.7h0ZM63.7,28.4h0ZM63.5,23.2h0ZM62.4,5.7h0ZM62.4,4.7h0Z"/>
  <path class="st1" d="M75.4,34.8h0c0,0,0,0,0-.2,0,0,0,0,0,0h0v-.2c0,0,0,0,0-.2s0-.2,0-.2h0q0-.2,0-.2c0,0,0-.2,0-.2,0,0,0,0,0,0h0c0,0,0-.3.2-.4,0-.2.2-.5.3-.7q0,0,0-.2h0q0-.2,0-.3c0,0,0-.2,0-.4,0,0,0-.2,0-.3h0q0,0,0-.2c0,0,0-.2,0-.3,0-.2,0-.4.2-.6,0,0,0,0,0,0h0v-.2c0,0,0-.2.2-.4,0,0,0-.2.2-.4,0,0,0,0,0,0,0,0,0,0,0,0,0,0,0,0,0,0h0c0-.2,0-.3,0-.5,0,0,0,0,0,0h0c0,0,0,0,0-.2h0c0,0,0,0,0,0h0c0,0,0,.2,0,.2q0,0,0,0h0q0,.2,0,.3s0,0,0,0h0q0-.2,0-.2c0,0,0,0,0,0h0c0-.3,0-.4.2-.6h0c0,0,0-.2,0-.4s0,0,0,0h0c0-.3.2-.7.3-.9,0,0,0,0,0,0,0,0,0-.2,0-.3s0-.2,0-.2c0-.2,0-.3.2-.5,0,0,0,0,0-.2,0-.2,0-.3.2-.5h0c0-.2,0-.2,0-.4h0v-.2c0,0,0-.2,0-.4,0,0,0-.2,0-.4h0c0,0,0-.2,0-.3s0,0,0-.3h0c0-.2,0-.3.2-.5,0,0,0-.2,0-.4h0q0,0,0,0h0c0,0,0-.2,0-.4h0c0-.2,0-.3.2-.5h0c0-.2,0-.4.2-.6h0c0,0,0-.2,0-.3s0,0,0,0q0,0,0,0c0,0,0-.3,0-.4h0c0,0,0-.2,0-.2h0c0,0,0,0,0-.2h0s0,0,0,0c0,0,0,0,0,0q0,0,0,0h.2c0-.2,0-.2,0-.3h0c0,0,0-.2,0,0,0,0,0,0,0,0s0,0,0,0h0c0,0,0,0,0,0,0,0,0,0,0,0h0c0-.2,0-.2,0-.3q0,0,.2,0h0v-.2h0c0,.2,0,.3,0,.3q0,0,0,0c0,0,0,0,0,0h0v.3h0q0,0,0,.2c0,0,0,0,0,0q0,0-.2,0t0,0h0c0,0,0,0,0,.2s0,0,0,0c0,0,0,.2,0,.2,0,0,0,.2,0,.3s0,0,0,.2,0,.2,0,.3c0,.2,0,.4-.2.5h0v.2c0,0,0,.2,0,.4h0c0,.2,0,.4-.2.6h0c0,.3,0,.5-.2.7h0q0,.2,0,.2c-.6.7-.6.8-.7.9h0c0,.2,0,.3,0,.5h0v.2c0,.2,0,.3-.2.5,0,0,0,.2,0,.3h0q0,.2,0,.2h0c0,.2,0,.3-.2.4,0,.2,0,.4-.2.6q0,0,0,.2c0,.2-.2.4-.2.6s0,0,0,.2h0c0,0,0,.2,0,.3,0,.2-.2.4-.3.6,0,0,0,0,0,0,0,.4-.3.8-.4,1.1,0,0,0,.2,0,.3h0c0,.3,0,.5-.2.6,0,0,0,0,0,.2h0c0,.2,0,.2,0,.2h0c0,.2-.2.4-.2.6,0,0,0,0,0,0h0q0,.2,0,.2h0c0,.2,0,.3,0,.5,0,0,0,.3-.2.4,0,.2,0,.4-.2.5,0,.2-.2.4-.3.7q0,0,0,0h0v.2c0,.2-.2.5-.4.7h0q0,0,0,.2h0c0,0,0,.2-.2.2h0c0,.2-.2.3-.4.4h0c0,.2-.2.2-.3.3h0c0,0,0,0,0,0h0c0,0,0,0,0,0,.3-.5.3-.6.3-.6ZM77.5,31.3h0ZM75.5,34.1h0ZM77.1,31.6h0ZM77.2,31.1h0ZM77,32.2h0ZM76.7,31.4h0ZM77.5,31.6h0ZM77.9,30.4h0ZM80.8,20h0ZM81.5,21h0ZM81.2,19s0,0,0,0c0,0,0,0,0,0ZM79.8,22.7h0ZM80.1,23.4h0ZM79.7,23.9h0ZM79.7,24.2h0ZM79.8,25.1h0ZM80.8,22.6s0,0,0,0q0,0,0,0c0,0,0,0,0,0ZM79,25.2h0ZM79.8,25.2h0ZM80.1,24.9h0ZM79.7,25.4h0ZM78.4,28.7s0,0,0,0q0,0,0,0,0,0,0,0ZM77.8,29.9h0ZM79,26.4h0ZM79,26.2h0ZM78.7,28h0ZM78.5,27.8q0,0,0,0,0,0,0,0h0ZM79.5,25.8h0ZM79,25.8h0ZM78.9,27.8h0ZM79,25.2h0ZM77.9,28.2s0,0,0,0h0ZM80.1,25.3h0ZM82,18.4h0ZM79,26h0ZM75.4,34.5h0ZM75.9,34.4h0ZM80.4,24h0ZM80.8,23.2h0ZM81,23.1h0ZM80.3,21.2h0ZM78.8,25.5h0ZM78.2,26.7h0ZM77.8,27.9h0ZM76.2,31.7h0ZM75.3,34.5s0,0,0,0c0,0,0,0,0,0ZM78.1,30.2h0ZM78.2,26.6h0ZM78.4,29.6h0ZM81.7,18.1h0ZM78.9,25.2h0Z"/>
  <path class="st1" d="M87.5,42.2h0c0,0,0,0,0,0h.2c0,0,0,0,0,0,0,0,0,0,0,0h0q0,0,0,0c0,0,0,0,0,0,0,0,.2-.2.4-.3h0c0,0,0,0,0,0h0c0,0,0,0,0,0h0c0,0,0-.2.2-.2h0l.2-.2h0q0,0,0-.2h0q0-.2.2-.3h0v-.2h0c0,0,0-.2.2-.2,0,0,.2-.2.3-.4h0c.2-.3.4-.5.6-.7s0-.2.2-.2h0c.2-.2.4-.4.6-.7,0,0,0,0,0,0l.3-.3c0,0,0,0,0,0,0,0,0,0,0-.2h0c0,0,0,0,0,0h0l.2-.2h0q0,0,0,0h0c.2-.2.5-.5.7-.8h0l.2-.2h0c0-.2.2-.3.3-.3h0c0,0,.2,0,.2,0h0c0,0,0-.2,0-.2h0c.2-.2.4-.4.5-.6h0s0,0,0,0c0,0,.2-.2.2-.3s0,0,0-.2h0c0,0,.2-.2.2-.3h0c0,0,0,0,0,0,0,0,0,0,0,0,.2-.2.5-.6.8-.8h0v-.2h0l.6-.6q0,0,0-.2h0l.2-.2h0c0,0,.2-.2.3-.4,0,0,.2-.2.3-.4h0c0,0,0-.2,0-.2l.6-.6c.2-.2.4-.4.6-.7h0c.2-.3.4-.5.5-.7h0c0,0,.3-.2.4-.4,0,0,0-.2.2-.2h0c0,0,0-.2,0-.2.2,0,.4-.3.5-.5h0c0,0,.2-.3.4-.4,0,0,0-.2.2-.2s0,0,0,0c.2-.2.4-.5.6-.7s0,0,0-.2h0l.2-.2h0q0-.2,0-.3l.2-.2h0c0,0,0-.2,0-.2.2-.2.3-.4.5-.5,0,0,0,0,0,0,.2,0,.2-.2.3-.4q0,0,0,0t0-.2c0,0,0,0,0-.2,0,0,0,0,0,0q0,0,0,0s0,0,0,0c0-.2,0-.3.2-.5,0,0,0-.2,0-.2h0c0-.2,0-.3,0-.4h0c0,0,0-.2,0-.3s0,0,0-.2h0c0-.2,0-.3,0-.3v-.2h0c0-.2,0-.3,0-.4h0c0,0,0-.2,0-.2,0,0,0,0-.3,0h0q0,0-.2,0c0,0,0,0,0,0,0,0,0,0-.2,0s0,0,0,0h0c0,0,0,.2,0,.2q0,0-.2,0h0c0,0-.2,0-.2.2,0,0,0,.2-.2.2l-.2.2q0,0,0,.2h0c0,0-.2.2-.2.3s0,0,0,0c0,0-.2,0-.2.2h0c0,.2-.2.3-.2.4h0q0,0,0,.2h0s0,0,0,0h0c0,0,0,.2,0,.2,0,0,0,0,0,0l-.4.4-.2.2c0,0,0,0,0,0h0l-.2.2h0c0,0,0,0,0,0h0v.2h0s0,0,0,0c0,0,0,0,0,0h0c0,0,0,0,0,.2l-.2.2h0l-.2.2h0l-.3.3h0c0,0,0,.2-.2.2h0l-.4.4h0c0,.2-.2.3-.2.3,0,0-.2.2-.3.4h0c0,.2-.2.3-.3.4h0c0,0-.2.2-.3.4h0c0,0-.5.2-.5.2,0,0,0,0,0,0l-.4.4h0q0,.2,0,.3h0s0,0,0,0h0c-.2.3-.4.5-.6.7h0c0,0,0,.2,0,.2l-.3.3h0l-.2.2h0q0,0,0,.2l-.2.2c-.2.2-.3.4-.5.6h0c0,.2-.2.2-.2.3q0,0,0,.2c0,0-.2.2-.2.3h0s0,0,0,0h0l-1.1,1.1h0l-.2.2h0q0,.2-.2.3c0,0-.2.2-.3.4h0c0,0,0,.2,0,.2,0,0,0,0,0,0,0,0-.2.2-.3.4l-.2.2h0v.2q-.2,0-.3.2h0c0,0,0,0,0,0,0,0-.2.2-.3.4h0q0,.2-.2.3h0c0,.2-.2.3-.3.5,0,0-.2.2-.3.4q0,0,0,.2c0,0-.2.2-.2.3h0c0,0-.2.3-.3.4,0,0-.2.3-.3.4,0,0,0,0,0,0,0,0-.2.2-.2.3q0,0,0,.2h0q0,.2-.2.3h0s0,0,0,0c0,0,0,.2-.2.2h0c0,0,0,.2-.2.3h.2s0,.1,0,.1h0q0,.2,0,.3h0c0,0,0,0,0,0h0c0,0,0,.2-.2.3,0,.2-.2.3-.2.5s0,.2,0,.3,0,0,0,.2c.4-.3.4-.2.4-.2ZM98.4,31h0ZM104.5,24.4h0ZM96.8,30.1h0ZM91.9,38.3s0-.1,0,0c0-.1,0-.1,0,0h0ZM105,21.9h0ZM104,22.1h0ZM96.5,30.7h0ZM102.5,26.2h0ZM93.7,33.7h0ZM96.7,30.5h0ZM91.3,36.6h0ZM89.7,39.2h0ZM88.5,41.2h0ZM97.8,30.9h0ZM104.7,22.2h0ZM97.3,30.7h0ZM89.7,39.2h0ZM90.8,37.8h0ZM91,38s0,0,0,0q0,0,0,0h0ZM94.8,33.6h0ZM94.2,34.4h0ZM91.5,36.9h0ZM91.5,36.9h0ZM93.2,34.7s0,0,0,0q0,0,0,0h0ZM94.6,34.2h0ZM93.4,35.3h0ZM93.4,35.4h0ZM93.3,35.6h0ZM91.8,37h0ZM91.6,37.7h0ZM89.8,39.4h0ZM89.7,39.6h0ZM89,40.6h0ZM92.8,35.2h0q0,0,0,0c0,0,0,0,0,0ZM95.9,32.6h0ZM104.1,24.1h0ZM104.1,24.1h0ZM101.7,26.2h0ZM101.5,25.9h0ZM102.2,25.8h0ZM102.2,25.8h0ZM103.2,24.7h0ZM101.4,25.5h0ZM102.2,24.9h0ZM104.5,22.8h0ZM104.2,24.2h0ZM100.7,27h0ZM97,31.1h0ZM97.8,29.7h0ZM96.9,30.6h0ZM97.5,29.9h0ZM97.8,29.7h0ZM101.3,25.5h0ZM101.9,25.7h0ZM102.5,24.7h0ZM102.5,24.8h0ZM104.1,22.9h0q0,0,0,0c0,0,0,0,0,0ZM104.9,23.3h0ZM102.5,25.8h0ZM98.5,29.6h0ZM97.8,30.9h0ZM94,34.9h0ZM93.7,35.4h0ZM89.7,39.1h0ZM93.5,34.2h0ZM94.2,33.9h0ZM96.5,31.2h0ZM101.7,25.5h0c0,0,0,0,0,0h0ZM102.7,24.2h0ZM104.7,22.2h0ZM104.9,22.9h0ZM103.2,25h0ZM96.3,32.2h0ZM95.9,32.7h0ZM94.2,33.6h0ZM96,31.7h0ZM98.7,28.4q0,0,0,0h0q0,0,0,0ZM99.3,27.6h0ZM102.5,24.7h0ZM102.5,24.2h0ZM105.2,22.1h0ZM102.2,26.6h0ZM97.9,30.8c0-.1,0-.1,0,0q0-.1,0,0h0ZM92.1,37.1h0ZM90.2,39.1h0ZM91.2,36.7h0ZM91.3,36.6h0ZM92.7,35.1h0ZM93.2,34.2h0ZM94,33.8h0ZM95.5,32.1h0ZM97.3,30.2h0ZM101,25.9h0ZM102.4,24.6h0ZM104.7,24h0ZM100.2,28.4h0ZM95.3,34.1h0ZM92.7,37.2h0ZM91.6,38.5h0ZM90.1,39.9h0ZM88.7,41.6h0ZM93.7,33.6h0ZM104.2,21.9h0ZM103.1,26h0ZM101.8,27.2h0ZM101.8,27.2h0ZM88.6,41.7h0ZM88.2,41.6s0,0,0,0h0ZM94.8,32.3h0q0,0,0,0h0ZM96.1,31.1h0q0,0,0,0,0,0,0,0ZM100.4,25.9h0ZM105.2,23.4h0Z"/>
  <g>
    <path class="st1" d="M80.3,53c0,0,.2,0,0,0h0Z"/>
    <path class="st1" d="M49.5,47.5h0q0,0,0,0Z"/>
    <path class="st1" d="M46.3,51.6s0,0,0,0q0,0,0,0Z"/>
    <path class="st1" d="M61.7,41.4s0,0,0,0c0,0,0,0,0,0Z"/>
    <path class="st1" d="M87.3,57.6h0s0,0,0,0h0Z"/>
    <path class="st1" d="M87.2,57.6c0-.2,0,0,0,0,0-.2,0-.4-.2-.5,0,0,0,.2,0,.4Z"/>
    <path class="st1" d="M103.7,76.9h0c0,0,0,0,0,0Z"/>
    <path class="st1" d="M59.2,39.4c0,0,0,0,0-.2,0,0,0,.2,0,.2Z"/>
    <path class="st1" d="M101.2,73.9h0,0Z"/>
    <path class="st1" d="M49.5,47.6h0q0,0,0,0Z"/>
    <path class="st1" d="M42.3,57.4h0Z"/>
    <path class="st1" d="M17.3,75.7h.1c-.1,0-.1,0-.1,0Z"/>
    <path class="st1" d="M34,61.7h0c0,0,0,.2.3.2,0,0,.2,0,.3.2s.2,0,.4.2h0c0,0-1.1-.6-1.1-.6Z"/>
    <path class="st1" d="M25.8,63l.9-.6c-2.1,2.6-3.3,3.6-4.9,5.8h.1c-.1,0-.2.2-.6.8-.2.2-.5.6-.9,1.1-.5.5-1.1,1.1-1.9,1.9h0q-.1,0-.3.4l.6-.5c-.2.4-.4.8-.8,1.2-.1,0-.2,0-.2,0l-.9,1.2-.4.2c-.2.4.2.5-.8,1.3.5-.2-.3.6-.1.5-.1,0-.2.1-.3.2-.2.3-.6.7-.9,1.1-.2.4-.6.7-.4.6l.4.8h0s0-.1-.1-.1c-.1-.1-.1-.2-.1-.2q-.1-.1-.1-.2c0-.1-.1-.1-.1-.1h-.1c.1-.1.1-.2.1-.2.2-.1.5-.4.8-.6.6-.5,1.4-1.1,1.8-1.3-.8.8-.1.2.1.1h0c.4-.5.6-.4.8-.7h-.1q-.1.1-.1,0s0-.1.1-.2h0c.1,0,.4-.5.6-.6h.1c.1-.4,2.3-2.1,2.7-2.5.5-.4.9-1.1,1.4-1.6.8-.9.6-.4,1-.8.6-.6-.2,0,0-.2l.8-.6c-.3.4-.1.2,0,.2.6-.6,1.6-1.4,1.5-1.8.8-.7.9-.7,1.2-1.1-.1,0-.4.3-.4.2.4-.2.1-.2,0,0,.4-.6,2.6-2.3,2.5-2.6h.1c-.1,0-.4,0-.1-.5l.3-.2.2-.4c.3-.2.2,0,.2,0,.4-.6,1.2-1.4,1.8-2.1l-1.1.4c.3-.2.7-.6,1-.9.3-.2.4-.4.4-.6.1,0,.2,0,.2,0h0c.4.5.5.6.6.6s.2,0,.3,0l.6.6-.6-.4c.6.5.8.7,1.3,1.2h0c0,0,0,0,0,0h0c0,0,.5.2,1,.5s.9.6,1.4.6c.2,0,.6,0,.9,0s.6-.3.9-.6c0-.2,0-.4,0-.5.3-.4.5-.6.7-.8h0c0,.3-.3.5-.5.9s-.6.8-1,1.1c-.4.3-1,.4-1.4.2-.5,0-.9-.4-1.3-.6h0c.5.2,1,.5,1.5.5.5,0,1,0,1.2-.2.3,0,1-.6.6,0,0-.2.2-.4.4-.7.4-.6.7-1,1-1.4.2-.3.4-.6.6-.8.4-.5.7-.9,1.5-1.9h-.2c.2-.3.4-.8.6-.8.9-1.2,1.8-2.4,2.5-3.1v-.2c.1-.2.6-.4.5-.8l.3-.6c.3-.3.3-.6.7-.9h0c.6-.9,0-.2.6-1,.3-.2,0-.4.4-.9l.6-.2c.7-.7.6-1,1.3-2.1.3-.2.4,0,.5.2,0,0,0-.2,0-.2v-.2c0,0,0,.2,0,.2,0,0,0,0,0,0,0-.2,0-.6,0-.6h0c0,0,.2,0,.3,0h0c0,0,0,.2,0,.2,0,0,.2.2.3.3h0c0,0,.6.5.6.5h0c0,0,.8.7.8.7h0c0,0,.2,0,.6.4s.7.6,1,.9h0c.4.5.9.9,1.3,1.2.5-.6.9-1.2,1.4-1.8.3-.3.4-.6.7-1,0-.2.3-.4.4-.7v.2c.4-.3,0-.2.3-.7h.2c0-.5.4-.5.7-.7h-.3l.4-.6c.5-.6.5-.2.6,0v-.5c0,0,.3,0,.3,0,0-.4.3-.3.5-.9,0,0,0,.2.2,0l.4-1-.2.6-.2-.2c.2-.7.6-.7.8-1.1v.3c.3-.6.5-.6.8-.9,0,0-.3.2,0,0h0c0,0,0,0,.3-.3-.2,0,0-.4,0-.4q0,0,0,0t0,0c0,0,0,.2,0,.3v-.4c0,0,0-.3.2,0,0,0,0,0,0,0,0,0,0,0,0,0,0,0,0,.2.2.3h0,0s0,0,0,.2c0,0,.2.3.3.2,0,.2.2.4.4.7,0,.2.2.4,0,.4.2.6.5,1.1.8,1.6.3.6.5,1.1.9,2.1,0,.2,0,.4.2.8,0,0,0,.3.2.5s.2.4.4.6c.7.9,1.7,1.4,2.4,1.6s1.3.3,1.9.4c.3,0,.6,0,.8,0h0c0,0,0,0,.3,0,.2.4.5.9.7,1.4,0,.3.2.6.3,1v.2c.2,0,.2.2.2.3.2.3.3.6.5.9.4.6.8,1.1,1.2,1.6.2.2.4.4.6.7,0,0,.2.2.3.4l.2.2.6-.6.4-.7c.3-.2.7-.6,1.1-.9.2,0,.3-.2.5-.4,0,0,.2-.2.4-.2.5-.4,1.1-.8,1.8-1l.4-.4c0,0,0,0-.2,0,.4,0,1-.7,1.1-.4h0c0,.3,1-.7,1.5-.8h-.3.2c0,0,0-.2,0-.2h0c0,0,0,0,0,0,0-.2.2-.3.3-.4,0,0,.2.2.3.3.2.3.4.6.6.9.5.7,1,1.6,1.8,2.5-.4-.2.4.4.2.6,0,.8.8,1.2,1.2,1.7h0l.6.9c-.6-.4.6.5,0,.2.6,1.2,1.4,2.8,2.6,4.2,1.1,1.5,2.4,2.8,3.4,4v-.2c.5.6,1.3,1.3,1.6,1.9.4.6,1.1.9,1.3,1.1.6.4.8,1.1.6.8.6.5,1.2.8,1.9,1.7,0,.4,2.1,1.9,1.9,2.1h0c.7,1.1,1.8,1.8,2.6,3.1h0c.9.6,1.6,1.1,2.4,1.8,0-.4.3-.8.4-1.3-.2-.9-.6-1.8-.9-2.6-1.6-1.8-3.2-3.4-4.8-5.1l-3.5-4.2c-1.5-1.6-3.1-3.2-4.3-4.8-.6-.8-1.2-1.7-1.8-2.6l-1.8-2.8-.7-.7c-.4-1.1-1.1-2.2-1.9-3.3-.2-.3-.4-.6-.6-.9l-.3-.6-.2-.2-.2-.2c-.4-.4-.8-.9-1.2-1.3-.4-.4-.8-.9-1.2-1.3-.6.5-1.2,1-1.8,1.5v.2c-.2.2-.5.4-.6.5s-.2,0-.2,0q0,0-.2,0c-.9.6-2,1.2-3.1,2-.2.2-.6.4-.8.6l-.4.3h-.2c0,0,0,.2,0,.2h0l-.2.2c0,0,0,0,0,0h0c0-.2,0-.2,0-.3l-.4-.7c-.2-.6-.6-1.1-.8-1.6-.2-.4-.4-.8-.6-1.1,0-.2-.2-.4-.4-.6,0,0,0-.2-.3-.2l-.3-.2c0,0-.2,0-.4,0h-.4c0,0-.7-.2-.7-.2-.2,0-.5,0-.7,0-.5,0-.9-.2-1.3-.4-.4-.2-.6-.4-.7-.6-.2-.3-.4-.8-.6-1.2,0-.3-.3-.8-.5-1.4s-.4-1.2-.5-1.5c-.4-.8-.9-1.6-1.6-2.4l-.3-.3c-.1-.1-.2-.2-.3-.4-.2-.3-.4-.6-.7-.9-.2-.2-.4-.5-.7-.7-.2,0-.4-.2-.7-.4-.3,0-.9,0-1.2,0-.4.2-.7.4-1,.8h0c-.4.3-.7.8-.9,1.4q0,0,0,0v.2c-.2,0-.3.3-.3.2h0c-.7,1-1.8,2.3-2.6,3.3h0c-.6.8-1.2,1.7-1.8,2.5l-.4.6c0,0-.2.2-.2.2h0c0,0,0,.2,0,.2,0,0,0,0,0,0h0q0,0-.2-.2c-.6-.4-1.1-.9-1.8-1.4,0,0-.4-.3-.7-.5s-.6-.4-.8-.6c-.6-.3-1.1-.6-1.7-.9,0,0,0,0-.2,0v.2c0,0-.4,0-.4,0l-.6.8c-.2.2-.4.6-.6.8l-.5.7c-1.7,2.4-3.4,4.9-5.1,7.4-1.2,1.5-2.3,3.2-3.5,4.9-.3.4-.6.9-.9,1.3l-.2.3h0c0,0,0,.2,0,.2,0,0,0,0,0,0,0,0-.5-.4-.9-.6,0,0-.4-.4-.9-.7-.4-.2-.8-.6-1.2-.9-.6-.4-1.2-.9-2-1.4-.8,1-1.8,2.1-2.6,3.1-.5.6-.9,1.1-1.4,1.7-.7.9-1.3,1.7-1.4,1.9Z"/>
    <path class="st1" d="M17.6,73.1h0q-.1,0,0,0Z"/>
    <path class="st1" d="M31.2,60.7h.1c0,.1-.1,0-.1,0Z"/>
    <path class="st1" d="M23.7,69.7q.4-.4.3-.4c-.2.1-.3.3-.3.4Z"/>
    <path class="st1" d="M15,76.4c-.2.2,0,.2,0,0,.2-.1.4-.3.4-.3,0,.1-.3.3-.4.3Z"/>
    <path class="st1" d="M16.6,76.4h0q.1,0,0,0Z"/>
  </g>
</svg>